<svg width="180" height="180" viewBox="0 0 180 180" fill="none" xmlns="http://www.w3.org/2000/svg">
  <rect width="180" height="180" rx="36" fill="#1E5A99"/>
  <g transform="translate(90 90)">
    <!-- Stylized water drop dot pattern in IrrigoPro brand colors -->
    <circle cx="0"   cy="-58" r="6" fill="#7DBE3F"/>
    <circle cx="-14" cy="-44" r="6" fill="#7DC4E8"/>
    <circle cx="0"   cy="-44" r="6" fill="#7DBE3F"/>
    <circle cx="14"  cy="-44" r="6" fill="#7DC4E8"/>
    <circle cx="-28" cy="-30" r="6" fill="#2A6EB8"/>
    <circle cx="-14" cy="-30" r="6" fill="#7DC4E8"/>
    <circle cx="0"   cy="-30" r="6" fill="#7DBE3F"/>
    <circle cx="14"  cy="-30" r="6" fill="#7DC4E8"/>
    <circle cx="28"  cy="-30" r="6" fill="#2A6EB8"/>
    <circle cx="-42" cy="-16" r="6" fill="#0E3B6B"/>
    <circle cx="-28" cy="-16" r="6" fill="#2A6EB8"/>
    <circle cx="-14" cy="-16" r="6" fill="#7DBE3F"/>
    <circle cx="0"   cy="-16" r="6" fill="#7DC4E8"/>
    <circle cx="14"  cy="-16" r="6" fill="#7DBE3F"/>
    <circle cx="28"  cy="-16" r="6" fill="#2A6EB8"/>
    <circle cx="42"  cy="-16" r="6" fill="#0E3B6B"/>
    <circle cx="-56" cy="0"   r="6" fill="#0E3B6B"/>
    <circle cx="-42" cy="0"   r="6" fill="#2A6EB8"/>
    <circle cx="-28" cy="0"   r="6" fill="#7DC4E8"/>
    <circle cx="-14" cy="0"   r="6" fill="#7DBE3F"/>
    <circle cx="0"   cy="0"   r="6" fill="#7DC4E8"/>
    <circle cx="14"  cy="0"   r="6" fill="#7DBE3F"/>
    <circle cx="28"  cy="0"   r="6" fill="#7DC4E8"/>
    <circle cx="42"  cy="0"   r="6" fill="#2A6EB8"/>
    <circle cx="56"  cy="0"   r="6" fill="#0E3B6B"/>
    <circle cx="-42" cy="16"  r="6" fill="#0E3B6B"/>
    <circle cx="-28" cy="16"  r="6" fill="#2A6EB8"/>
    <circle cx="-14" cy="16"  r="6" fill="#7DC4E8"/>
    <circle cx="0"   cy="16"  r="6" fill="#7DBE3F"/>
    <circle cx="14"  cy="16"  r="6" fill="#7DC4E8"/>
    <circle cx="28"  cy="16"  r="6" fill="#2A6EB8"/>
    <circle cx="42"  cy="16"  r="6" fill="#0E3B6B"/>
    <circle cx="-28" cy="30"  r="6" fill="#2A6EB8"/>
    <circle cx="-14" cy="30"  r="6" fill="#7DBE3F"/>
    <circle cx="0"   cy="30"  r="6" fill="#7DC4E8"/>
    <circle cx="14"  cy="30"  r="6" fill="#7DBE3F"/>
    <circle cx="28"  cy="30"  r="6" fill="#2A6EB8"/>
    <circle cx="-14" cy="44"  r="6" fill="#7DC4E8"/>
    <circle cx="0"   cy="44"  r="6" fill="#7DBE3F"/>
    <circle cx="14"  cy="44"  r="6" fill="#7DC4E8"/>
    <circle cx="0"   cy="58"  r="6" fill="#7DBE3F"/>
  </g>
</svg>
